<?xml version="1.0" encoding="UTF-8" standalone="no"?>
<!-- Created with Inkscape (http://www.inkscape.org/) -->

<svg
   stroke="currentColor"
   viewBox="0 0 506.483 360.58047"
   version="1.1"
   id="svg1"
   xml:space="preserve"
   xmlns="http://www.w3.org/2000/svg"
   xmlns:svg="http://www.w3.org/2000/svg"><defs
     id="defs1" /><g
     id="layer1"
     transform="translate(-2.2341004,-56.765237)"><ellipse
       style="display:inline;fill:none;stroke-width:5;stroke-linecap:round;stroke-linejoin:round;stroke-dasharray:none;stroke-dashoffset:0"
       id="path1"
       ry="88.518196"
       rx="250.7415"
       cy="326.32751"
       cx="255.4756" /><path
       id="path1-8"
       style="display:inline;fill:none;stroke-width:5;stroke-linecap:round;stroke-linejoin:round"
       d="M 8.0485113,310.38929 C 6.7837089,306.7212 6.1322637,302.98465 6.1322632,299.19333 6.1322571,249.49304 118.08007,209.203 256.17468,209.203 c 138.09461,0 250.04243,40.29004 250.04242,89.99033 0,4.41889 -0.88496,8.76338 -2.59458,13.01179" /><path
       id="path1-8-9"
       style="fill:none;stroke-width:5;stroke-linecap:round;stroke-linejoin:round"
       d="M 10.046664,281.11859 C 8.4923516,277.04878 7.6890264,272.89201 7.6890259,268.66724 7.6890198,218.96709 118.86223,178.67716 256.00134,178.67716 c 137.13911,0 248.31233,40.28993 248.31232,89.99008 0,4.45731 -0.89419,8.83893 -2.62111,13.12259" /><path
       style="fill:none;stroke-width:4.99999;stroke-linecap:round;stroke-linejoin:round;stroke-dasharray:none;stroke-dashoffset:0"
       d="M 62.565054,284.85502 170.7658,315.03344 146.47583,326.81039 41.955389,296.63196 Z"
       id="path4" /><path
       style="fill:none;stroke-width:4.99999;stroke-linecap:round;stroke-linejoin:round;stroke-dasharray:none;stroke-dashoffset:0"
       d="m 42.037027,295.98137 -0.04465,-14.88828"
       id="path5" /><path
       style="fill:none;stroke-width:4.99999;stroke-linecap:round;stroke-linejoin:round;stroke-dasharray:none;stroke-dashoffset:0"
       d="m 62.565054,284.85502 0.08547,-14.28619"
       id="path6" /><path
       style="fill:none;stroke-width:4.99999;stroke-linecap:round;stroke-linejoin:round;stroke-dasharray:none;stroke-dashoffset:0"
       d="m 171.24928,314.2974 0.0446,-8.87353 -107.992815,-30.87369"
       id="path7" /><path
       id="path1-8-9-4"
       style="fill:none;stroke-width:5;stroke-linecap:round;stroke-linejoin:round"
       d="M 11.984152,250.62913 C 10.429842,246.55932 9.5737115,242.40222 9.6265223,238.17778 10.146985,196.54495 116.89618,150.79006 254.03529,150.79006 c 137.13911,0 247.9443,50.77878 249.41641,88.14993 0.17544,4.45386 -2.62111,13.12259 -2.62111,13.12259" /><path
       style="fill:none;stroke-width:4.99999;stroke-linecap:round;stroke-linejoin:round;stroke-dasharray:none;stroke-dashoffset:0;stroke-opacity:1"
       d="m 9.3685076,234.21269 5.2047264,-84.31657 c 23.42127,-46.84254 84.597944,-92.647245 243.581206,-90.562241 122.64991,1.608506 208.36254,32.269304 241.4993,90.562241 l 4.16377,86.91893"
       id="path8" /><path
       style="fill:none;stroke-width:4.99999;stroke-linecap:round;stroke-linejoin:round"
       d="m 230.93866,156.04461 c 0,22.63383 0,22.63383 0,22.63383"
       id="path10" /><path
       style="fill:none;stroke-width:4.99999;stroke-linecap:round;stroke-linejoin:round"
       d="m 230.38661,185.85502 c 0.36803,23.00186 0,23.5539 0,23.5539"
       id="path12" /><path
       style="fill:none;stroke-width:4.99999;stroke-linecap:round;stroke-linejoin:round"
       d="m 229.65055,216.40149 v 21.71375"
       id="path13" /><path
       style="fill:none;stroke-width:4.99999;stroke-linecap:round;stroke-linejoin:round;stroke-opacity:1"
       d="m 237.74721,178.49442 v -11.04089 c 51.15613,-0.73606 112.98513,7.3606 158.98885,19.87361 v 6.62453"
       id="path14" /><path
       style="fill:none;stroke-width:4.99999;stroke-linecap:round;stroke-linejoin:round"
       d="m 396.73606,187.32714 20.97768,-10.67287 v 23.18588"
       id="path15" /><path
       style="fill:none;stroke-width:4.99999;stroke-linecap:round;stroke-linejoin:round"
       d="m 396.73606,217.13754 21.34571,-10.67286 0.36804,23.92193"
       id="path16" /><path
       style="fill:none;stroke-width:4.99999;stroke-linecap:round;stroke-linejoin:round"
       d="m 397.47211,246.21189 20.9777,-8.09665 v 19.8736"
       id="path17" /><path
       style="fill:none;stroke-width:4.99999;stroke-linecap:round;stroke-linejoin:round"
       d="m 238.11524,209.40892 v -12.14498 c 40.72863,0.61338 98.75465,3.43494 158.62082,19.50557 v 7.72863"
       id="path18" /><path
       style="fill:none;stroke-width:4.99999;stroke-linecap:round;stroke-linejoin:round;stroke-opacity:1"
       d="m 237.74721,238.11524 v -11.04089 c 52.8736,-0.61339 111.26765,5.76579 159.7249,19.13754 v 6.62454"
       id="path19" /><path
       style="fill:none;stroke-width:4.99999;stroke-linecap:round;stroke-linejoin:round;stroke-opacity:1"
       d="M 85.382898,199.10409 C 142.55018,174.20074 190.1487,171.37918 225.97026,168.55762"
       id="path20" /><path
       style="fill:none;stroke-width:4.99999;stroke-linecap:round;stroke-linejoin:round;stroke-opacity:1"
       d="M 83.54275,228.54647 C 152.73234,198.85874 216.03346,200.0855 224.86617,198"
       id="path21" /><path
       style="fill:none;stroke-width:4.99999;stroke-linecap:round;stroke-linejoin:round;stroke-opacity:1"
       d="M 82.070632,257.98884 C 141.4461,232.84014 191.98885,231.24535 224.86617,227.81041"
       id="path22" /><path
       style="fill:none;stroke-width:4.99999;stroke-linecap:round;stroke-linejoin:round;stroke-opacity:1"
       d="m 85.382898,199.10409 -22.418079,-6.00691 v 18.9603"
       id="path23" /><path
       style="fill:none;stroke-width:4.99999;stroke-linecap:round;stroke-linejoin:round;stroke-opacity:1"
       d="m 83.54275,228.54647 -22.258718,-5.96421 v 20.22807"
       id="path24" /><path
       style="fill:none;stroke-width:4.99999;stroke-linecap:round;stroke-linejoin:round;stroke-opacity:1"
       d="M 82.070632,257.98884 60.431314,252.1906 v 18.50984"
       id="path25" /><path
       style="fill:none;stroke-width:4.99999;stroke-linecap:round;stroke-linejoin:round;stroke-opacity:1"
       d="m 162.30111,278.96653 86.48699,26.49815"
       id="path30" /><path
       style="fill:none;stroke-width:4.99999;stroke-linecap:round;stroke-linejoin:round;stroke-opacity:1"
       d="m 180.33457,274.18215 79.49442,23.92193"
       id="path31" /><path
       style="fill:none;stroke-width:4.99999;stroke-linecap:round;stroke-linejoin:round;stroke-opacity:1"
       d="m 209.40892,271.97396 49.68401,15.08924"
       id="path32" /><path
       style="fill:none;stroke-width:4.99999;stroke-linecap:round;stroke-linejoin:round;stroke-opacity:1"
       d="m 152.36431,286.69517 78.0223,23.18586"
       id="path33" /><path
       style="fill:none;stroke-width:4.99999;stroke-linecap:round;stroke-linejoin:round;stroke-opacity:1"
       d="m 200.90244,311.76312 -46.5823,-13.5323"
       id="path34" /></g></svg>
