<?xml version="1.0" encoding="UTF-8" standalone="no"?>
<!-- Created with Inkscape (http://www.inkscape.org/) -->

<svg
   stroke="currentColor"
   viewBox="0 0 512 512"
   version="1.1"
   id="svg1"
   xml:space="preserve"
   inkscape:version="1.4 (86a8ad7, 2024-10-11)"
   sodipodi:docname="hekatron-xl.svg"
   xmlns:inkscape="http://www.inkscape.org/namespaces/inkscape"
   xmlns:sodipodi="http://sodipodi.sourceforge.net/DTD/sodipodi-0.dtd"
   xmlns="http://www.w3.org/2000/svg"
   xmlns:svg="http://www.w3.org/2000/svg">
   <sodipodi:namedview
     id="namedview1"
     pagecolor="#505050"
     bordercolor="#eeeeee"
     borderopacity="1"
     inkscape:showpageshadow="0"
     inkscape:pageopacity="0"
     inkscape:pagecheckerboard="0"
     inkscape:deskcolor="#505050"
     inkscape:document-units="mm"
     showguides="true"
     inkscape:zoom="0.50835204"
     inkscape:cx="819.31411"
     inkscape:cy="947.17826"
     inkscape:window-width="1920"
     inkscape:window-height="1009"
     inkscape:window-x="-8"
     inkscape:window-y="-8"
     inkscape:window-maximized="1"
     inkscape:current-layer="layer1"><sodipodi:guide
       position="259.09293,94.654273"
       orientation="0,-1"
       id="guide3"
       inkscape:locked="false" /><inkscape:page
       x="0"
       y="0"
       width="512"
       height="512"
       id="page2"
       margin="0"
       bleed="0" /></sodipodi:namedview><defs
     id="defs1" /><g
     inkscape:label="Ebene 1"
     inkscape:groupmode="layer"
     id="layer1"><ellipse
       style="display:inline;fill:none;stroke-width:5;stroke-linecap:round;stroke-linejoin:round;stroke-dasharray:none;stroke-dashoffset:0"
       id="path1"
       ry="88.518196"
       rx="250.7415"
       cy="326.32751"
       cx="255.4756" /><path
       id="path1-8"
       style="display:inline;fill:none;stroke-width:5;stroke-linecap:round;stroke-linejoin:round"
       d="M 8.0485113,310.38929 C 6.7837089,306.7212 6.1322637,302.98465 6.1322632,299.19333 6.1322571,249.49304 118.08007,209.203 256.17468,209.203 c 138.09461,0 250.04243,40.29004 250.04242,89.99033 0,4.41889 -0.88496,8.76338 -2.59458,13.01179"
       sodipodi:nodetypes="csssc" /><path
       id="path1-8-9"
       style="fill:none;stroke-width:5;stroke-linecap:round;stroke-linejoin:round"
       d="M 10.046664,281.11859 C 8.4923516,277.04878 7.6890264,272.89201 7.6890259,268.66724 7.6890198,218.96709 118.86223,178.67716 256.00134,178.67716 c 137.13911,0 248.31233,40.28993 248.31232,89.99008 0,4.45731 -0.89419,8.83893 -2.62111,13.12259"
       sodipodi:nodetypes="csssc" /><path
       style="fill:#ff0000;stroke:#ff0000;stroke-width:0.2;stroke-linecap:round;stroke-linejoin:round;stroke-dasharray:none;stroke-dashoffset:0"
       d="M 508.6171,391.58363 496.84013,55.204459 M 1.5179564,389.67398 18.447306,57.711153"
       id="path2"
       sodipodi:nodetypes="cccc" /><ellipse
       style="fill:none;stroke-width:4.99999;stroke-linecap:round;stroke-linejoin:round;stroke-dasharray:none;stroke-dashoffset:0"
       id="path3"
       cx="206.83269"
       cy="290.49371"
       rx="58.884758"
       ry="19.195501" /><path
       style="fill:none;stroke-width:4.99999;stroke-linecap:round;stroke-linejoin:round;stroke-dasharray:none;stroke-dashoffset:0"
       d="M 62.565054,284.85502 170.7658,315.03344 146.47583,326.81039 41.955389,296.63196 Z"
       id="path4" /><path
       style="fill:none;stroke-width:4.99999;stroke-linecap:round;stroke-linejoin:round;stroke-dasharray:none;stroke-dashoffset:0"
       d="m 42.037027,295.98137 -0.04465,-14.88828"
       id="path5"
       sodipodi:nodetypes="cc" /><path
       style="fill:none;stroke-width:4.99999;stroke-linecap:round;stroke-linejoin:round;stroke-dasharray:none;stroke-dashoffset:0"
       d="m 62.565054,284.85502 0.08547,-14.28619"
       id="path6"
       sodipodi:nodetypes="cc" /><path
       style="fill:none;stroke-width:4.99999;stroke-linecap:round;stroke-linejoin:round;stroke-dasharray:none;stroke-dashoffset:0"
       d="m 171.24928,314.2974 0.0446,-8.87353 -107.992815,-30.87369"
       id="path7"
       sodipodi:nodetypes="ccc" /><path
       id="path1-8-9-4"
       style="fill:none;stroke-width:5;stroke-linecap:round;stroke-linejoin:round"
       d="M 11.984152,250.62913 C 10.429842,246.55932 9.5737115,242.40222 9.6265223,238.17778 10.146985,196.54495 116.89618,150.79006 254.03529,150.79006 c 137.13911,0 247.9443,50.77878 249.41641,88.14993 0.17544,4.45386 -2.62111,13.12259 -2.62111,13.12259"
       sodipodi:nodetypes="csssc" /><path
       style="fill:none;stroke-width:4.99999;stroke-linecap:round;stroke-linejoin:round;stroke-dasharray:none;stroke-dashoffset:0;stroke-opacity:1"
       d="m 9.3685076,234.21269 5.2047264,-84.31657 c 23.42127,-46.84254 84.597944,-92.647245 243.581206,-90.562241 122.64991,1.608506 208.36254,32.269304 241.4993,90.562241 l 4.16377,86.91893"
       id="path8"
       sodipodi:nodetypes="ccscc" /><path
       style="fill:none;stroke-width:4.99999;stroke-linecap:round;stroke-linejoin:round;stroke-dasharray:none;stroke-dashoffset:0;stroke-opacity:1"
       d="m 417.41907,175.91975 4.16377,84.31657"
       id="path9" /><path
       style="fill:none;stroke-width:4.99999;stroke-linecap:round;stroke-linejoin:round;stroke-dasharray:none;stroke-dashoffset:0;stroke-opacity:1"
       d="m 230.04891,150.41659 v 87.95988"
       id="path10" /><path
       style="fill:none;stroke-width:4.99999;stroke-linecap:round;stroke-linejoin:round;stroke-dasharray:none;stroke-dashoffset:0;stroke-opacity:1"
       d="m 64.538608,185.80873 -3.122835,84.31656"
       id="path11" /></g></svg>
